<svg width="23" height="27" xmlns="http://www.w3.org/2000/svg" preserveAspectRatio="xMidYMid meet" version="1.1" xml:space="preserve">
 <g>
  <title>Layer 1</title>
  <g stroke="null" id="svg_1">
   <path stroke="null" fill="#D1D1D0" d="m16.91232,12.06698l0,-4.88342l1.07775,0l0,-5.05094l-5.30165,0l0,-2.13262l-6.10177,0l0,2.13262l-5.30165,0l0,5.05094l1.07775,0l0,17.11707l8.70404,0c1.27055,1.38256 3.05897,2.24486 5.03722,2.24486c3.84583,0 6.97463,-3.25853 6.97463,-7.26381c0,-3.72052 -2.69992,-6.7961 -6.16632,-7.21471l0,0zm-1.61662,0c-0.97277,0.11746 -1.88509,0.44398 -2.69436,0.93549l0,-5.81891l2.69436,0l0,4.88342zm-7.09243,-10.38333l2.86853,0l0,0.44897l-2.86853,0l0,-0.44897zm-5.30165,2.13262l13.47182,0l0,1.68365l-13.47182,0l0,-1.68365zm1.07775,3.36729l2.69436,0l0,15.43343l-2.69436,0l0,-15.43343zm4.31098,15.43343l0,-15.43343l2.69436,0l0,7.17054c-1.15082,1.29579 -1.85529,3.02753 -1.85529,4.92758c0,1.20162 0.28189,2.33589 0.78002,3.3353l-1.6191,0zm7.81366,2.24486c-2.95443,0 -5.35796,-2.50324 -5.35796,-5.58017s2.40359,-5.58011 5.35796,-5.58011s5.35801,2.50324 5.35801,5.58011s-2.40359,5.58017 -5.35801,5.58017z" id="svg_2"/>
   <polygon stroke="null" fill="#D1D1D0" points="18.03330701258271,16.24129520025849 16.25702011649325,18.091231427459206 14.480787189704344,16.24129520025849 13.33767516716641,17.431802002499353 15.113963236501533,19.28173702418826 13.33767516716641,21.131614181310397 14.480787189704344,22.322122189063066 16.25702011649325,20.47218716737416 18.03330701258271,22.322122189063066 19.17641786187498,21.131614181310397 17.40013096578552,19.28173702418826 19.17641786187498,17.431802002499353 " id="svg_3"/>
  </g>
  <g id="svg_4"/>
  <g id="svg_5"/>
  <g id="svg_6"/>
  <g id="svg_7"/>
  <g id="svg_8"/>
  <g id="svg_9"/>
  <g id="svg_10"/>
  <g id="svg_11"/>
  <g id="svg_12"/>
  <g id="svg_13"/>
  <g id="svg_14"/>
  <g id="svg_15"/>
  <g id="svg_16"/>
  <g id="svg_17"/>
  <g id="svg_18"/>
 </g>

</svg>